<svg xmlns="http://www.w3.org/2000/svg" xmlns:xlink="http://www.w3.org/1999/xlink" width="500" zoomAndPan="magnify" viewBox="0 0 375 374.999991" height="500" preserveAspectRatio="xMidYMid meet" version="1.0"><defs><clipPath id="74d652e30b"><path d="M 11.71875 116 L 62 116 L 62 194 L 11.71875 194 Z M 11.71875 116 " clip-rule="nonzero"/></clipPath><clipPath id="f4cb228ef6"><path d="M 313.347656 116.394531 L 363.46875 116.394531 L 363.46875 193.964844 L 313.347656 193.964844 Z M 313.347656 116.394531 " clip-rule="nonzero"/></clipPath><clipPath id="d4341cf77e"><path d="M 339 117.203125 L 363.46875 117.203125 L 363.46875 176.996094 L 339 176.996094 Z M 339 117.203125 " clip-rule="nonzero"/></clipPath><clipPath id="114547d1f7"><path d="M 11.71875 117 L 37 117 L 37 177 L 11.71875 177 Z M 11.71875 117 " clip-rule="nonzero"/></clipPath></defs><rect x="-37.5" width="450" fill="#ffffff" y="-37.499999" height="449.999989" fill-opacity="1"/><rect x="-37.5" width="450" fill="#ffffff" y="-37.499999" height="449.999989" fill-opacity="1"/><g clip-path="url(#74d652e30b)"><path stroke-linecap="round" transform="matrix(0.0808435, 0, 0, -0.0808004, 11.799597, 374.956879)" fill="none" stroke-linejoin="round" d="M 532.921356 3060.781911 C 484.940908 3077.60578 404.925175 3101.584627 300.943377 3113.57405 C 225.759512 3121.599229 155.310878 3078.379291 130.523395 3007.167917 C 104.914495 2935.183031 79.353914 2828.776897 80.127013 2694.427671 C 80.94843 2529.621442 185.751646 2376.031125 344.140276 2331.989332 C 362.549693 2326.42972 381.732209 2322.368786 400.914724 2321.595275 " stroke="#000000" stroke-width="160" stroke-opacity="1" stroke-miterlimit="10"/></g><g clip-path="url(#f4cb228ef6)"><path stroke-linecap="round" transform="matrix(0.0808435, 0, 0, -0.0808004, 11.799597, 374.956879)" fill="none" stroke-linejoin="round" d="M 3817.721469 3060.781639 C 3865.750231 3077.605506 3945.765957 3101.58435 4049.747746 3113.573773 C 4077.724258 3116.812851 4104.927672 3112.800262 4129.715153 3102.406206 C 4135.320119 3099.988984 4141.698184 3097.620106 4147.351469 3093.607517 C 4152.908117 3090.368439 4159.3345 3086.404195 4164.118049 3082.391606 C 4170.544433 3078.379017 4175.327982 3073.592917 4180.932948 3068.806816 C 4186.537914 3063.972372 4191.321463 3058.412761 4195.331913 3052.804805 C 4196.153331 3051.209438 4196.926429 3050.387583 4197.747847 3049.614072 C 4200.115462 3046.423338 4202.531396 3043.18426 4204.125912 3039.993527 C 4206.541846 3036.802794 4208.136362 3033.61206 4209.730878 3030.372982 C 4213.69301 3023.218004 4216.930361 3015.192827 4220.119393 3007.167649 C 4245.728291 2935.182769 4271.337189 2828.776645 4270.56409 2694.427431 C 4269.742673 2529.621217 4164.939467 2376.030914 4006.502532 2331.989124 C 3988.141435 2326.429513 3968.958921 2322.368579 3949.728088 2321.595068 " stroke="#000000" stroke-width="160" stroke-opacity="1" stroke-miterlimit="10"/></g><path stroke-linecap="round" transform="matrix(0.0808435, 0, 0, -0.0808004, 11.799597, 374.956879)" fill="none" stroke-linejoin="round" d="M 2255.288996 4559.701575 C 2590.765586 4553.706863 2911.649935 4528.47106 3124.155487 4508.166392 C 3280.128183 4492.792857 3413.729331 4386.966856 3464.898813 4236.712306 C 4108.938488 2340.739677 4039.35959 1227.608722 3976.110439 790.574897 C 3958.570759 666.958139 3872.128641 566.014928 3753.699559 530.433413 C 3190.545352 360.019228 2175.321582 360.019228 2175.321582 360.019228 C 2175.321582 360.019228 1160.097813 360.019228 596.943606 530.433413 C 478.514523 566.014928 392.169043 666.958139 374.532726 790.574897 C 311.331893 1227.608722 241.704676 2340.739677 885.744352 4236.712306 C 936.962152 4386.966856 1070.5633 4492.792857 1226.535997 4508.166392 C 1439.041548 4528.47106 1759.925897 4553.706863 2095.305849 4559.701575 C 2119.80342 4560.136675 2230.839745 4560.136675 2255.288996 4559.701575 Z M 2255.288996 4559.701575 " stroke="#000000" stroke-width="160" stroke-opacity="1" stroke-miterlimit="10"/><path stroke-linecap="round" transform="matrix(0.0808435, 0, 0, -0.0808004, 11.799597, 374.956879)" fill="none" stroke-linejoin="round" d="M 335.297958 1360.02417 C 335.297958 1360.02417 975.327183 1119.993977 2175.321582 1119.993977 C 3375.315981 1119.993977 4015.296888 1360.02417 4015.296888 1360.02417 " stroke="#000000" stroke-width="160" stroke-opacity="1" stroke-miterlimit="10"/><path stroke-linecap="round" transform="matrix(0.0808435, 0, 0, -0.0808004, 11.799597, 374.956879)" fill="none" stroke-linejoin="round" d="M 734.555205 3764.000277 C 897.727384 3780.00229 1541.718741 3839.997752 2175.321582 3839.997752 C 2808.924423 3839.997752 3452.91578 3780.00229 3616.136279 3764.000277 " stroke="#000000" stroke-width="160" stroke-opacity="1" stroke-miterlimit="10"/><path stroke-linecap="round" transform="matrix(0.0808435, 0, 0, -0.0808004, 11.799597, 374.956879)" fill="none" stroke-linejoin="round" d="M 432.950009 2481.615404 C 548.963158 2494.426683 1224.120063 2559.981757 2175.321582 2559.981757 C 3126.523102 2559.981757 3801.728326 2494.426683 3917.741475 2481.615404 " stroke="#000000" stroke-width="160" stroke-opacity="1" stroke-miterlimit="10"/><path stroke-linecap="round" transform="matrix(0.0808435, 0, 0, -0.0808004, 11.799597, 374.956879)" fill="none" stroke-linejoin="round" d="M 3144.15942 1177.620561 C 3162.520518 1299.206852 3208.133351 1585.599372 3259.351151 1792.803684 C 3280.949601 1879.195216 3337.724049 1952.001957 3416.145265 1995.173551 C 3476.543614 2027.999432 3556.704303 2066.191547 3650.732453 2097.615439 " stroke="#000000" stroke-width="160" stroke-opacity="1" stroke-miterlimit="10"/><path stroke-linecap="round" transform="matrix(0.0808435, 0, 0, -0.0808004, 11.799597, 374.956879)" fill="none" stroke-linejoin="round" d="M 3695.330594 1773.41756 C 3690.305451 1771.387093 3685.376946 1769.356626 3680.545078 1767.326159 C 3610.193081 1738.2228 3559.0236 1675.713427 3543.416666 1601.166285 C 3543.368348 1600.77953 3543.27171 1600.392774 3543.175073 1600.006019 " stroke="#000000" stroke-width="160" stroke-opacity="1" stroke-miterlimit="10"/><path stroke-linecap="round" transform="matrix(0.0808435, 0, 0, -0.0808004, 11.799597, 374.956879)" fill="none" stroke-linejoin="round" d="M 697.156547 2098.533984 C 792.344345 2066.965058 873.568045 2028.337843 934.546218 1995.173551 C 1012.919116 1952.001957 1069.741882 1879.195216 1091.340332 1792.803684 C 1142.558132 1585.599372 1188.122647 1299.206852 1206.532063 1177.620561 " stroke="#000000" stroke-width="160" stroke-opacity="1" stroke-miterlimit="10"/><path stroke-linecap="round" transform="matrix(0.0808435, 0, 0, -0.0808004, 11.799597, 374.956879)" fill="none" stroke-linejoin="round" d="M 807.033223 1600.006019 C 806.888267 1600.827874 806.694993 1601.64973 806.501718 1602.471585 C 790.70151 1677.16376 739.193798 1739.721478 668.455251 1768.53477 C 664.10657 1770.323515 659.757889 1772.015571 655.312571 1773.804315 " stroke="#000000" stroke-width="160" stroke-opacity="1" stroke-miterlimit="10"/><path stroke-linecap="round" transform="matrix(0.0808435, 0, 0, -0.0808004, 11.799597, 374.956879)" fill="none" stroke-linejoin="round" d="M 1367.288309 1968.487414 C 1563.220554 1985.359627 1832.645509 2000.007996 2175.321582 2000.007996 C 2517.756062 2000.007996 2786.987743 1985.359627 2982.871669 1968.535759 " stroke="#000000" stroke-width="160" stroke-opacity="1" stroke-miterlimit="10"/><g clip-path="url(#d4341cf77e)"><path stroke-linecap="round" transform="matrix(0.0808435, 0, 0, -0.0808004, 11.799597, 374.956879)" fill="none" stroke-linejoin="round" d="M 4129.473559 3102.551239 C 4170.882664 3085.679028 4204.609099 3052.031294 4220.360987 3007.409371 C 4246.018203 2934.844358 4271.385508 2828.921678 4270.660727 2694.765842 C 4270.370815 2640.47503 4258.870971 2587.392829 4237.852347 2539.000039 " stroke="#000000" stroke-width="160" stroke-opacity="1" stroke-miterlimit="10"/></g><g clip-path="url(#114547d1f7)"><path stroke-linecap="round" transform="matrix(0.0808435, 0, 0, -0.0808004, 11.799597, 374.956879)" fill="none" stroke-linejoin="round" d="M 220.492776 3102.261449 C 179.37358 3085.340892 145.985373 3051.789844 130.330121 3007.409639 C 104.672902 2934.84462 79.305595 2828.92193 79.982057 2694.766082 C 80.320288 2641.103743 91.57854 2588.650015 112.06566 2540.740666 " stroke="#000000" stroke-width="160" stroke-opacity="1" stroke-miterlimit="10"/></g><path stroke-linecap="round" transform="matrix(0.0808435, 0, 0, -0.0808004, 11.799597, 374.956879)" fill="none" stroke-linejoin="round" d="M 1055.294597 435.194847 L 1055.294597 160.018239 C 1055.294597 116.02479 1019.3455 80.008175 975.327183 80.008175 L 575.296838 80.008175 C 531.32684 80.008175 495.329424 116.02479 495.329424 160.018239 L 495.329424 583.999063 " stroke="#000000" stroke-width="160" stroke-opacity="1" stroke-miterlimit="10"/><path stroke-linecap="round" transform="matrix(0.0808435, 0, 0, -0.0808004, 11.799597, 374.956879)" fill="none" stroke-linejoin="round" d="M 3855.313741 583.999063 L 3855.313741 160.018239 C 3855.313741 116.02479 3819.316325 80.008175 3775.298008 80.008175 L 3375.315981 80.008175 C 3331.345983 80.008175 3295.300249 116.02479 3295.300249 160.018239 L 3295.300249 435.194847 " stroke="#000000" stroke-width="160" stroke-opacity="1" stroke-miterlimit="10"/></svg>